<?xml version="1.0" encoding="UTF-8"?>
<svg id="Layer_2" data-name="Layer 2" xmlns="http://www.w3.org/2000/svg" viewBox="0 0 398.8 494.58" style="fill:#7A7A7A;">
  <defs>
    <style>
      .cls-1 {
        stroke: ;
        stroke-linecap: round;
        stroke-linejoin: round;
        stroke-width: 4px;
      }
    </style>
  </defs>
  <g id="Layer_1-2" data-name="Layer 1">
    <g>
      <path d="m199.21,0c-.72.02-1.44.13-2.13.33L6.16,54.46h0C2.52,55.51,0,58.84,0,62.64v189.65c0,68.93,49.79,128.87,98.32,171.83,48.53,42.96,96.99,69.43,96.99,69.43h0c2.55,1.39,5.63,1.39,8.18,0,0,0,48.48-26.47,97-69.43,48.53-42.96,98.3-102.89,98.3-171.83V62.64c0-3.8-2.52-7.13-6.16-8.18L201.72.33h0c-.81-.23-1.66-.35-2.51-.33h0Zm.2,17.38l182.34,51.68v183.22c0,60.55-45.61,117.53-92.52,159.06-44.86,39.71-85.97,62.14-89.81,64.26-3.84-2.13-44.97-24.55-89.83-64.26-46.91-41.53-92.52-98.51-92.52-159.06V69.06L199.41,17.38Z"/>
      <g>
        <path class="cls-1" d="m137.83,122.08c-.73.35-1.46.7-2.19,1.07-1.08.53-1.89,1.4-2.23,2.43-.35,1.03-.21,2.12.38,3.04.59.92,1.59,1.59,2.77,1.85,1.18.27,2.45.11,3.52-.43.69-.35,1.39-.68,2.08-1.01,1.09-.51,1.91-1.38,2.28-2.41.36-1.02.24-2.12-.33-3.05-.58-.93-1.57-1.61-2.74-1.89s-2.45-.14-3.53.39h0Z"/>
        <path class="cls-1" d="m68.33,199.47c1.04,1.38,2.76,2.07,4.46,1.79.5-.09,50.51-8.12,68.07,17.03.02.03.06.06.09.09h0c.16.22.35.43.55.62.05.05.1.11.16.16.25.22.53.41.82.57h.03c.06.03.13.05.19.08h0c.25.12.51.22.77.29.1.03.2.04.31.06h0c.23.05.47.08.71.09.06,0,.11.02.16.02s.13-.02.2-.02h0c.21,0,.41-.03.61-.07.07,0,.14,0,.21-.02s.06-.03.1-.04h0c.4-.09.78-.24,1.14-.44.04-.02.08-.06.13-.08.31-.19.59-.41.85-.66.06-.06.12-.12.18-.18h0c.26-.28.49-.59.67-.92,4.95-9.28,31.5-12.43,48.67-12.31v142.21c0,4.18-2.23,8.04-5.85,10.13-3.62,2.09-8.07,2.09-11.69,0-3.62-2.09-5.84-5.95-5.84-10.13,0-2.55-2.07-4.61-4.62-4.61s-4.61,2.06-4.61,4.61c0,7.47,3.99,14.38,10.46,18.12,6.47,3.74,14.45,3.74,20.92,0,6.47-3.74,10.46-10.64,10.46-18.12v-142.14c16.76.49,38.93,3.86,43.4,12.26.18.32.39.61.64.88.04.04.06.09.1.14.3.32.65.59,1.03.81.08.04.17.06.25.11h0c.31.16.63.28.96.37.03,0,.06.03.09.03h0c.33.08.67.11,1,.11.26-.01.51-.04.76-.09.11-.02.23-.02.33-.04s.13-.05.19-.07c.3-.08.58-.19.86-.33h.03c.29-.16.57-.35.82-.57.06-.05.11-.11.16-.16.2-.19.38-.39.55-.62.02-.04.06-.06.09-.09,17.56-25.15,67.56-17.12,68.07-17.03h0c1.71.29,3.43-.4,4.47-1.79,1.04-1.39,1.21-3.24.45-4.79-36.8-75.43-108.17-86.1-126.9-87.61v-4.58c0-2.55-2.06-4.61-4.61-4.61s-4.61,2.06-4.61,4.61v4.54c-12.47,1.03-24.77,3.59-36.61,7.63-1.18.38-2.15,1.21-2.71,2.31s-.65,2.38-.26,3.55c.39,1.17,1.24,2.14,2.35,2.68,1.11.54,2.39.62,3.55.21,5.84-1.96,11.78-3.56,17.81-4.79-21.05,21.93-32.74,67.49-36.97,87.07-17.76-15.73-47.11-15.75-61.79-14.58h0c10.06-18.49,24.04-34.56,40.97-47.08,2.05-1.51,2.5-4.4.99-6.45-1.51-2.05-4.4-2.5-6.45-.99-20.43,15.16-36.82,35.1-47.75,58.07-.76,1.55-.59,3.4.45,4.78h0Zm250.27-8.34c-14.68-1.17-44.02-1.15-61.78,14.58-4.23-19.54-15.87-64.98-36.86-86.95,20.72,4.15,40.29,12.77,57.32,25.27,17.04,12.5,31.14,28.57,41.32,47.09h0Zm-119.24-74.9c24.2,5.85,40.7,57.2,47.63,87.68-16.63-8-43.81-7.69-47.52-7.61-3.88-.08-31.09-.38-47.73,7.6,6.93-30.49,23.43-81.82,47.63-87.68h0Z"/>
      </g>
    </g>
  </g>
</svg>