<?xml version="1.0" encoding="UTF-8"?>
<svg id="Layer_2" data-name="Layer 2" xmlns="http://www.w3.org/2000/svg" viewBox="0 0 498 486.8" style="fill:#7A7A7A;">
  <g id="Layer_1-2" data-name="Layer 1">
    <g>
      <path d="m186.45,278.41c2.17,0,4.26-.86,5.83-2.36l36.21-36.21h0c1.97-3.32,1.43-7.54-1.29-10.27-2.72-2.72-6.95-3.26-10.27-1.29l-36.21,36.12c-3.11,3.26-3.11,8.39,0,11.65,1.51,1.53,3.58,2.39,5.74,2.36h0Z"/>
      <path d="m215.99,307.96c2.19-.03,4.27-.91,5.83-2.45l36.21-36.12h0c2.05-3.32,1.56-7.61-1.19-10.38-2.75-2.77-7.03-3.29-10.37-1.27l-36.21,36.21c-3.06,3.25-3.06,8.32,0,11.56,1.53,1.52,3.58,2.39,5.74,2.45h0Z"/>
      <path d="m302.05,224.59c2.26-.14,4.37-1.18,5.88-2.87l80.25-80.87,42.55-13.6c1.98-.69,3.64-2.09,4.67-3.92l43.84-79.3c1.71-3.3,1.15-7.32-1.38-10.02l-25.34-25.53c-2.7-2.59-6.74-3.16-10.03-1.39l-78.69,44.44c-1.82,1.04-3.2,2.72-3.89,4.7l-13.84,42.52-80.25,80.87h0c-2.01,3.43-1.47,7.79,1.33,10.61,2.79,2.82,7.12,3.37,10.52,1.34l81.72-82.26c.95-.93,1.64-2.11,1.99-3.4l13.49-41.04,70.3-39.91,16.34,16.47-39.43,70.76-40.99,13.68c-1.23.41-2.35,1.1-3.29,2l-81.72,82.35c-3.13,3.35-3.13,8.59,0,11.94,1.6,1.56,3.74,2.43,5.97,2.44h0Z"/>
      <path d="m59.25,486.8c15.83.09,31.03-6.17,42.2-17.39l131.67-132.09c4.25-4.26,6.64-10.03,6.64-16.04s-2.39-11.78-6.64-16.04l-52.16-52.16h0c-4.33-4.11-10.07-6.4-16.04-6.4s-11.71,2.29-16.04,6.4L17.13,384.93C6.1,396.12-.06,411.22,0,426.93c.06,15.72,6.33,30.77,17.45,41.87,11.12,11.1,26.17,17.36,41.89,17.41l-.08.59Zm105.67-223.92c1.69-.04,3.31.64,4.47,1.86l52.16,52.16h0c1.18,1.17,1.84,2.77,1.84,4.43s-.66,3.26-1.84,4.43l-131.76,131.84c-10.97,10.65-26.75,14.71-41.49,10.69-14.75-4.03-26.27-15.55-30.3-30.3-4.03-14.75.03-30.53,10.69-41.5l131.33-131.76c1.26-1.34,3.06-2.02,4.89-1.86h0Z"/>
      <path d="m61.2,432.53c2.16-.05,4.21-.93,5.74-2.45l101.28-101.28c2.2-1.36,3.65-3.65,3.95-6.22.29-2.57-.61-5.13-2.44-6.96-1.83-1.82-4.4-2.7-6.97-2.39-2.57.31-4.85,1.79-6.19,3.99l-101.28,101.28c-3.06,3.25-3.06,8.32,0,11.56,1.57,1.56,3.69,2.44,5.91,2.45h0Z"/>
      <path d="m460.72,476.26c-13.19.14-25.66-5.16-35.09-14.98L184.15,203.66c-7.21-7.68-17.78-10.69-27.64-7.74-8.91,2.63-15.02,3.9-19.22,3.94-25.84.28-50.96-10.89-68.93-30.65-18.2-20.05-27.53-46.44-26.28-74.3.15-3.44,1.97-6.56,4.81-8.25,2.89-1.73,6.84-1.91,9.74-.1l51.9,32.25c15.59-8.76,25.65-25,27.16-43.37l-57.98-36.04c-2.68-1.65-4.4-4.57-4.67-7.82-.22-3.26,1.02-6.43,3.42-8.49C92.9,8.72,112.52.73,133.15.03c23.26-.69,46.06,9.2,64.3,28.1,23.39,24.26,33.06,56.33,28.01,92.83-1.37,9.81,1.77,19.63,8.41,26.32l249.2,251.6c9.38,9.75,14.78,23.21,14.93,36.98.24,22.07-16.48,40.17-37.27,40.4h0ZM163.6,174.84c12.53-.13,24.83,5.05,33.92,14.75l241.38,257.52c5.74,5.98,13.45,9.25,21.61,9.17,10.4-.11,18.75-9.18,18.64-20.19-.09-8.65-3.36-16.76-9.2-22.81l-249.1-251.51c-11.05-11.16-16.32-27.49-14.08-43.7,4.2-30.33-3.35-55.77-22.5-75.62-14.51-15.06-31.6-23.03-50.5-22.43-11.87.41-23.34,3.85-33.79,10.09l50.1,31.11c2.86,1.79,4.63,5.01,4.67,8.53.3,28.46-14.33,54.22-38.21,67.21l-3.95,2.14c-2.89,1.55-6.32,1.45-9.07-.26l-41.72-25.92c2.45,15.89,9.36,30.54,20.13,42.42,14.59,16.06,34.16,24.76,55.14,24.54,1.11-.01,4.71-.35,14.35-3.21,4.02-1.18,8.1-1.79,12.18-1.83h0Z"/>
    </g>
  </g>
</svg>