<?xml version="1.0" encoding="UTF-8"?>
<svg id="Layer_2" data-name="Layer 2" xmlns="http://www.w3.org/2000/svg" viewBox="0 0 425.93 500" style="fill:#7A7A7A;">
  <defs>
    <style>
      .cls-1 {
        fill: none;
      }
    </style>
  </defs>
  <g id="Layer_1-2" data-name="Layer 1">
    <g>
      <polygon class="cls-1" points="348.45 277.48 211.22 153.7 300.23 277.48 348.45 277.48"/>
      <path class="cls-1" d="m272.06,437.53v1.3c.13,1.13.26,2.26.48,3.39,2.8,15.3,12.63,28.39,26.54,35.34,13.91,6.95,30.28,6.95,44.2,0,13.91-6.95,23.74-20.04,26.53-35.34v-.16h-.39v-1.35c.38-2.49.58-5,.57-7.52,0-2.91-.24-5.82-.74-8.7h.36s-.23-1.18-.23-1.18c-3.09-14.97-12.93-27.66-26.66-34.39-13.72-6.73-29.79-6.73-43.52,0-13.72,6.73-23.56,19.42-26.66,34.39l-.26,1.35h0c-.31,2.83-.39,5.68-.22,8.52v4.35Z"/>
      <path d="m183.41,364.34c-95.48-4.32-169.63-85.51-165.32-180.98C22.41,87.89,103.58,13.72,199.07,18.04c89.19,4.03,159.79,74.4,165.17,162.25l-35.32-26.1c-3.96-2.94-9.57-2.08-12.51,1.89-1.11,1.49-1.67,3.17-1.75,4.91h0c-.13,2.86,1.14,5.74,3.65,7.61l51.69,38.18c1.89,1.39,4.3,1.99,6.67,1.65,2.33-.34,4.43-1.66,5.85-3.55l38.22-52.07c2.89-3.94,2.03-9.57-1.94-12.5-3.94-2.92-9.59-2.03-12.5,1.94l-24.46,33.31C374.19,80.35,296.97,4.59,199.87.2,94.52-4.57,4.95,77.26.19,182.61h0c-4.76,105.34,77.06,194.92,182.44,199.63,5.75.26,11.49.24,17.19-.01v-17.94c-5.45.27-10.92.3-16.42.05Z"/>
      <path d="m217.22,362.53v-58.97c0-4.8,3.89-8.7,8.7-8.7h0s200.01,0,200.01,0v-17.39h-51.44L158.17,82.65c-.4-.45-.86-.86-1.35-1.22l-.48-.7c-1.39-1.34-3.24-2.1-5.18-2.13-2.16.05-4.22.96-5.7,2.54-1.48,1.58-2.26,3.69-2.17,5.85-.04.44-.04.87,0,1.3v138.48c0,2.31.92,4.52,2.55,6.15,1.63,1.63,3.84,2.55,6.15,2.55,5.99,0,11.76,2.21,16.24,6.18,4.47,3.98,7.34,9.46,8.04,15.4.71,5.95-.79,11.95-4.2,16.86-3.42,4.92-8.52,8.41-14.33,9.82-5.82,1.41-11.95.64-17.24-2.16-5.29-2.8-9.37-7.45-11.46-13.06-1.02-2.78-1.54-5.73-1.52-8.7,0-4.8-3.89-8.7-8.7-8.7s-8.7,3.89-8.7,8.7c-.01,5.02.89,10,2.66,14.7,5.19,13.86,17.31,23.96,31.89,26.55,14.57,2.59,29.43-2.71,39.08-13.94,9.65-11.23,12.65-26.71,7.89-40.73-4.75-14.02-16.55-24.49-31.04-27.53v-105.79l118.27,164.4h-61.66c-4.61,0-9.04,1.83-12.3,5.09-3.26,3.26-5.09,7.69-5.09,12.3v129.78c0,4.61,1.83,9.04,5.09,12.3,3.26,3.26,7.69,5.09,12.3,5.09h37.61c2.88,21.57,16.09,40.39,35.4,50.42,19.31,10.04,42.3,10.04,61.6,0,19.31-10.04,32.51-28.84,35.4-50.41h38.7v-17.39l-38.83-.12s0-.04,0-.07v-1.35c-3.15-21.31-16.38-39.79-35.54-49.64-19.16-9.84-41.89-9.84-61.05,0-19.16,9.85-32.39,28.33-35.54,49.64v1.35h-29.05c-4.8,0-8.7-3.89-8.7-8.7v-53.25Zm-6-208.83l137.23,123.78h-48.22l-89.01-123.78Zm61.05,270.96h0s.26-1.35.26-1.35c3.09-14.97,12.94-27.66,26.66-34.39,13.73-6.73,29.79-6.73,43.52,0,13.72,6.73,23.56,19.42,26.66,34.39l.23,1.18h-.36c.5,2.87.75,5.78.74,8.69,0,2.52-.18,5.04-.57,7.52v1.35h.39v.16c-2.8,15.3-12.63,28.39-26.53,35.34-13.91,6.95-30.28,6.95-44.2,0-13.91-6.95-23.74-20.04-26.54-35.34-.22-1.13-.35-2.26-.48-3.39v-5.65c-.17-2.84-.1-5.69.22-8.52Z"/>
    </g>
  </g>
</svg>