<?xml version="1.0" encoding="UTF-8"?>
<svg id="Layer_2" data-name="Layer 2" xmlns="http://www.w3.org/2000/svg" viewBox="0 0 500 466.18" style="fill:#7A7A7A;">
  <defs>
    <style>
      .cls-1 {
        fill: none;
        stroke:#7A7A7A;
        stroke-width:5;
        stroke-miterlimit:5;
      }
    </style>
  </defs>
  <g id="Layer_1-2" data-name="Layer 1">
    <g>
      <path class="cls-1" d="m437.48,369.33c-23.67,0-43.04,19.37-43.04,43.04s19.37,43.04,43.04,43.04,43.04-19.37,43.04-43.04-19.37-43.04-43.04-43.04Zm0,72.1c-16.14,0-29.59-13.45-29.59-29.59s12.91-29.59,29.59-29.59,29.59,13.45,29.59,29.59-13.45,29.59-29.59,29.59Z"/>
      <path class="cls-1" d="m437.48,393.54c-10.22,0-18.83,8.07-18.83,18.83s8.07,18.83,18.83,18.83,18.83-8.61,18.83-18.83-8.61-18.83-18.83-18.83Z"/>
      <path d="m97.45,309.08h0s-20.98,0-20.98,0c-3.23,0-5.38,2.15-5.38,5.38s2.15,5.38,5.38,5.38h20.98c17.22,0,33.36,7.53,43.04,20.98,8.07,10.76,11.84,24.75,10.76,40.89,0,3.23,2.15,5.38,4.84,5.92h.54c2.69,0,5.38-2.15,5.38-4.84,1.08-18.83-3.23-34.97-12.91-48.42-11.3-16.15-30.67-25.29-51.65-25.29Z"/>
      <path d="m437.48,358.04c-29.59,0-53.8,24.21-53.8,53.8s24.21,53.8,53.8,53.8,53.8-24.21,53.8-53.8-24.21-53.8-53.8-53.8Zm0,97.38c-23.67,0-43.04-19.37-43.04-43.04s19.37-43.04,43.04-43.04,43.04,19.37,43.04,43.04-19.37,43.04-43.04,43.04Z"/>
      <path d="m437.48,382.25c-16.68,0-29.59,13.45-29.59,29.59s13.45,29.59,29.59,29.59,29.59-13.45,29.59-29.59-12.91-29.59-29.59-29.59Zm0,48.96c-10.76,0-18.83-8.61-18.83-18.83,0-10.76,8.61-18.83,18.83-18.83s18.83,8.61,18.83,18.83-8.07,18.83-18.83,18.83Z"/>
      <path class="cls-1" d="m97.45,309.08h0s-20.98,0-20.98,0c-3.23,0-5.38,2.15-5.38,5.38s2.15,5.38,5.38,5.38h20.98c17.22,0,33.36,7.53,43.04,20.98,8.07,10.76,11.84,24.75,10.76,40.89,0,3.23,2.15,5.38,4.84,5.92h.54c2.69,0,5.38-2.15,5.38-4.84,1.08-18.83-3.23-34.97-12.91-48.42-11.3-16.15-30.67-25.29-51.65-25.29Z"/>
      <path class="cls-1" d="m222.81,248.82c0-11.84-9.68-20.98-20.98-20.98h-115.13c-11.84,0-20.99,9.15-20.99,20.98v1.61h157.1v-1.61Z"/>
      <path class="cls-1" d="m222.81,248.82c0-11.84-9.68-20.98-20.98-20.98h-115.13c-11.84,0-20.99,9.15-20.99,20.98v1.61h157.1v-1.61Z"/>
      <path d="m344.43,118.41c-1.96-4.89-3.03-9.96-3.03-15.28V34.24l66.48-24.41h0s66.48,24.41,66.48,24.41v75.02c0,14.99-8.42,28.01-21.59,40.59-12.46,11.9-28.94,23.01-44.89,34.28-9.07-6.41-10.97-7.87-19.55-14.36v11.32c0,.17-.02.32-.03.48,8,5.85,8.9,6.63,16.84,12.27h0c1.65,1.17,3.85,1.17,5.49,0,16.61-11.81,34.58-23.72,48.67-37.17,14.09-13.46,24.56-28.85,24.56-47.41V30.9c0-1.99-1.25-3.77-3.12-4.45L409.52.33h0c-.73-.29-1.52-.39-2.3-.3h0c-.33.07-.65.17-.97.3l-71.23,26.12c-1.87.68-3.11,2.46-3.12,4.45v72.23c0,5.35.89,10.43,2.47,15.28h10.06Z"/>
      <path class="cls-1" d="m445.01,313.92h-41.43c-7.54,0-13.99-4.31-17.22-11.3l-53.8-119.98h-11.3l24.21,146.34c2.15,10.76,0,22.06-7.53,30.67-7.53,8.61-17.75,13.45-29.05,13.45h-84.47c-18.29,0-33.36-15.06-33.36-33.36v-17.22c0-9.15,5.38-17.76,13.45-22.6l18.29-10.22v-28.52H65.16v13.45c.54,3.76,1.08,25.82-33.36,36.05-3.76,1.08-6.99,4.3-8.07,8.61l-12.91,55.42c-1.08,4.84,0,9.68,3.23,13.45,3.23,3.77,7.53,5.92,12.37,5.92h332.5c3.23-9.15,14.53-32.28,39.81-45.19h0c23.67-11.83,53.27-11.83,87.7.54l-31.21-31.21c-2.69-2.69-6.46-4.3-10.22-4.3Zm-283,68.87c0,2.69-2.69,4.84-5.38,4.84h-.54c-2.69-.54-4.84-2.69-4.84-5.92,1.08-16.14-2.69-30.13-10.76-40.89-9.69-13.45-25.82-20.98-43.04-20.98h-20.98c-3.23,0-5.38-2.15-5.38-5.38s2.15-5.38,5.38-5.38h20.98c20.98,0,40.35,9.15,51.65,25.29,9.69,13.45,13.99,29.59,12.91,48.42Z"/>
      <path d="m497.2,344.58l-34.44-34.96c-4.84-4.84-10.76-7.53-17.75-7.53h-41.43c-3.23,0-5.92-1.61-7.53-4.84l-51.65-115.67h31.21c.63,0,1.21-.1,1.75-.26,2.08-.6,3.43-2.29,3.6-4.64.01-.16.03-.32.03-.48v-46.27c0-3.23-2.15-5.38-5.38-5.38h-52.19c-13.45,0-24.75,10.22-26.9,23.13h-46.8c-3.23,0-5.38,2.15-5.38,5.39s2.15,5.38,5.38,5.38h47.35c1.08,8.07,5.92,15.06,12.91,19.37l24.75,152.26c1.61,8.07-.54,16.14-5.38,22.06-4.84,6.46-12.37,9.68-20.45,9.68h-84.47c-12.37,0-22.6-10.23-22.6-22.6v-16.68c0-5.38,3.23-10.76,7.53-13.45l20.98-11.84c1.61-1.08,2.69-2.69,2.69-4.84v-44.12c0-17.75-13.99-31.74-31.74-31.74h-114.6c-17.75,0-31.74,13.99-31.74,31.74v26.9s2.15,16.14-25.82,24.21c-7.53,2.15-13.99,8.61-15.6,16.68L.61,372.56c-1.61,8.07,0,16.14,4.84,22.6,4.84,5.92,11.84,9.68,19.91,9.68-.54,2.15-.54,4.84-.54,7.53,0,29.59,24.21,53.8,53.8,53.8s53.8-24.21,53.8-53.8c0-2.69,0-4.84-.54-7h230.81c2.15,0,4.3-1.61,5.38-3.76,0-.54,8.61-28.52,36.05-42.5,22.06-11.3,50.03-10.22,83.93,2.15,3.77,1.61,8.07,0,10.22-3.77,2.69-4.3,2.15-9.68-1.08-12.91Zm-189.92-189.91v-2.16c0-9.15,7.53-16.68,16.68-16.68h46.81v35.51h-46.81c-9.15,0-16.68-7.53-16.68-16.68Zm-241.57,94.15c0-11.84,9.15-20.98,20.99-20.98h115.13c11.3,0,20.98,9.15,20.98,20.98v1.61H65.7v-1.61Zm12.91,206.6c-23.67,0-43.04-19.37-43.04-43.04,0-2.69,0-4.84.54-7h13.45c-.54,2.15-1.08,4.84-1.08,7,0,16.68,13.45,29.59,29.59,29.59s29.59-13.45,29.59-29.59c0-2.69-.54-4.84-1.08-7h13.45c1.62,2.15,1.62,4.3,1.62,7,0,23.67-19.37,43.04-43.04,43.04Zm-18.3-43.58c0-2.69.54-4.84,1.61-7h34.44c1.08,2.15,1.61,4.84,1.61,7,0,10.76-8.61,18.83-18.83,18.83s-18.83-8.61-18.83-18.83Zm338.42-62.95h0c-25.29,12.91-36.58,36.05-39.81,45.19H26.43c-4.84,0-9.15-2.15-12.37-5.92-3.23-3.77-4.3-8.61-3.23-13.45l12.91-55.42c1.08-4.3,4.3-7.53,8.07-8.61,34.43-10.22,33.9-32.28,33.36-36.05v-13.45h157.65v28.52l-18.29,10.22c-8.07,4.84-13.45,13.45-13.45,22.6v17.22c0,18.29,15.06,33.36,33.36,33.36h84.47c11.3,0,21.52-4.84,29.05-13.45,7.53-8.61,9.68-19.91,7.53-30.67l-24.21-146.34h11.3l53.8,119.98c3.23,7,9.68,11.3,17.22,11.3h41.43c3.77,0,7.53,1.61,10.22,4.3l31.21,31.21c-34.43-12.37-64.03-12.37-87.7-.54Z"/>
      <g>
        <rect x="404.03" y="57.65" width="10" height="55"/>
        <rect x="404.03" y="57.65" width="10" height="55" transform="translate(323.89 494.18) rotate(-90)"/>
      </g>
    </g>
  </g>
</svg>