<svg xmlns="http://www.w3.org/2000/svg" width="85" height="70" viewBox="0 0 85 70">
  <g id="Add_Selfie" data-name="Add Selfie" transform="translate(0 0.058)">
    <path id="Path_1326" data-name="Path 1326" d="M71.606,51.673a31.077,31.077,0,0,0-2.764-3.929A38.985,38.985,0,0,0,59.225,39.2a37.342,37.342,0,0,0-11.845-4.675,10.044,10.044,0,0,0,1.438-.918c.254-.2.536-.344.818-.545a10.673,10.673,0,0,0,1.636-1.147A17.568,17.568,0,0,0,56.94,22.42a19.563,19.563,0,0,0,.254-7.256,17.284,17.284,0,0,0-7.869-12.3A17.839,17.839,0,0,0,37.254.079,16.907,16.907,0,0,0,26.96,5.069,17.917,17.917,0,0,0,21.743,15.48a19.086,19.086,0,0,0,1.805,11.214,18.65,18.65,0,0,0,7.7,7.715,12.925,12.925,0,0,0-1.664.43c-1.608.545-3.272,1.118-4.907,1.835a39.684,39.684,0,0,0-11.648,7.8,36.073,36.073,0,0,0-5.612,7.141,2.91,2.91,0,0,0,.282,3.7c.169.2.338.373.508.574.282.315.564.66.846.946a45.268,45.268,0,0,0,8.094,6.6,40.953,40.953,0,0,0,9.025,4.331A33.341,33.341,0,0,0,33.5,69.483l.564.057a48.154,48.154,0,0,0,5.471.4,17.164,17.164,0,0,0,2.087-.086,57.554,57.554,0,0,0,8.264-1.291A40.136,40.136,0,0,0,61.4,63.69a41.489,41.489,0,0,0,9.843-8.374,2.963,2.963,0,0,0,.367-3.671Zm-43.969-27.1a13.914,13.914,0,0,1-1.354-8.432A13.138,13.138,0,0,1,30.175,8.4a12.475,12.475,0,0,1,7.587-3.671c.592-.057,1.156-.115,1.72-.115a13.375,13.375,0,0,1,7.389,2.208,12.613,12.613,0,0,1,5.782,9.063,14.846,14.846,0,0,1-.169,5.478,12.7,12.7,0,0,1-4.2,7,5.959,5.959,0,0,1-.987.66c-.451.287-.874.545-1.269.832a8.164,8.164,0,0,1-1.861,1c-.254.115-.508.229-.79.344a1.924,1.924,0,0,0-.564.086l-1.044.229v.057a10.273,10.273,0,0,1-3.243.287,12.379,12.379,0,0,1-4.795-1.377,14.015,14.015,0,0,1-6.092-5.937ZM59,59.732a35.041,35.041,0,0,1-10.21,4.331,48.99,48.99,0,0,1-7.615,1.176,32.474,32.474,0,0,1-6.628-.315l-.564-.057a30.1,30.1,0,0,1-6.374-1.52,37.157,37.157,0,0,1-8.038-3.872,42.313,42.313,0,0,1-7.3-5.965,4.732,4.732,0,0,1-.367-.4,32.431,32.431,0,0,1,4.259-5.277,33.856,33.856,0,0,1,10.266-6.912c1.467-.631,3.046-1.176,4.625-1.721a18.113,18.113,0,0,1,3.1-.6l.874-.115a24.936,24.936,0,0,1,3.723-.143h1.213a16.18,16.18,0,0,1,4.795.4,33.394,33.394,0,0,1,11.986,4.417A34.231,34.231,0,0,1,65.232,50.7a25.46,25.46,0,0,1,1.749,2.38A36.4,36.4,0,0,1,58.915,59.7Z" transform="translate(12.921 0)" fill="#010101"/>
    <path id="Path_1327" data-name="Path 1327" d="M23.715,17.3H15.253V8.835A2.254,2.254,0,0,0,12.98,6.59a2.229,2.229,0,0,0-2.245,2.245V17.3H2.274A2.26,2.26,0,0,0,0,19.57a2.229,2.229,0,0,0,2.245,2.245h8.461v8.461a2.259,2.259,0,1,0,4.518,0V21.815h8.461a2.248,2.248,0,0,0,2.245-2.245A2.273,2.273,0,0,0,23.686,17.3Z" transform="translate(0 12.378)" fill="#231f20"/>
  </g>
</svg>